<svg width="386" height="75" viewBox="0 0 386 75" fill="none" xmlns="http://www.w3.org/2000/svg">
<path d="M123.526 13.587V20.615H111.957V57H103.25V20.615H91.681V13.587ZM162.71 36.786V57H154.002V37.968Q154.002 33.863 151.95 31.655Q149.897 29.447 146.352 29.447Q142.745 29.447 140.661 31.655Q138.578 33.863 138.578 37.968V57H129.87V10.974H138.578V26.835Q140.257 24.595 143.056 23.32Q145.855 22.045 149.275 22.045Q153.194 22.045 156.241 23.756Q159.289 25.466 161 28.794Q162.71 32.121 162.71 36.786ZM203.511 22.543V57H194.741V52.646Q193.062 54.885 190.356 56.16Q187.651 57.435 184.479 57.435Q180.436 57.435 177.326 55.725Q174.216 54.015 172.444 50.687Q170.671 47.359 170.671 42.757V22.543H179.379V41.513Q179.379 45.618 181.431 47.826Q183.484 50.034 187.029 50.034Q190.636 50.034 192.689 47.826Q194.741 45.618 194.741 41.513V22.543ZM269.004 36.786V57H260.297V37.968Q260.297 33.925 258.244 31.779Q256.192 29.633 252.647 29.633Q249.101 29.633 247.018 31.779Q244.934 33.925 244.934 37.968V57H236.227V37.968Q236.227 33.925 234.174 31.779Q232.122 29.633 228.576 29.633Q224.969 29.633 222.885 31.779Q220.802 33.925 220.802 37.968V57H212.094V22.543H220.802V26.71Q222.481 24.533 225.124 23.289Q227.768 22.045 230.94 22.045Q234.983 22.045 238.155 23.756Q241.327 25.466 243.068 28.638Q244.748 25.653 247.951 23.849Q251.154 22.045 254.886 22.045Q261.23 22.045 265.117 25.933Q269.004 29.82 269.004 36.786ZM297.366 21.983Q301.782 21.983 305.358 24.16Q308.935 26.337 311.018 30.349Q313.102 34.36 313.102 39.647Q313.102 44.934 311.018 49.008Q308.935 53.082 305.358 55.321Q301.782 57.56 297.366 57.56Q293.51 57.56 290.618 56.036Q287.726 54.512 285.984 52.086V57H277.277V10.974H285.984V27.581Q287.663 25.093 290.618 23.538Q293.572 21.983 297.366 21.983ZM295.065 29.633Q292.701 29.633 290.618 30.846Q288.534 32.059 287.259 34.36Q285.984 36.662 285.984 39.771Q285.984 42.881 287.259 45.183Q288.534 47.484 290.618 48.697Q292.701 49.91 295.065 49.91Q297.491 49.91 299.574 48.666Q301.658 47.422 302.933 45.12Q304.208 42.819 304.208 39.647Q304.208 36.537 302.933 34.267Q301.658 31.997 299.574 30.815Q297.491 29.633 295.065 29.633ZM327.407 49.847H342.77V57H317.518V49.972L332.57 29.696H317.58V22.543H342.583V29.571ZM382.451 22.543 361.118 73.296H351.851L359.314 56.129L345.506 22.543H355.271L364.166 46.613L373.184 22.543Z" fill="white"/>
<g clip-path="url(#clip0_8993_1015)">
<path d="M54.1842 64C63.5052 63.8099 71 56.1806 71 46.8014C71 42.24 69.1905 37.8655 65.9694 34.6401L37.3685 6V23.8018C37.3685 26.7789 38.5495 29.6343 40.652 31.7395L47.3519 38.4487L47.3702 38.4665L58.6043 49.7161C58.9691 50.0813 58.9691 50.6736 58.6043 51.0389C58.2396 51.4043 57.6479 51.4043 57.2832 51.0389L53.4108 47.1613H17.5892L13.7168 51.0389C13.352 51.4043 12.7605 51.4043 12.3957 51.0389C12.0308 50.6736 12.0308 50.0813 12.3957 49.7161L23.6298 38.4665L23.6481 38.4487L30.348 31.7395C32.4505 29.6343 33.6315 26.7789 33.6315 23.8018V6L5.0305 34.6401C1.80951 37.8655 0 42.24 0 46.8014C0 56.1806 7.49488 63.8099 16.8158 64H54.1842Z" fill="white"/>
</g>
<defs>
<clipPath id="clip0_8993_1015">
<rect width="71" height="58" fill="white" transform="translate(0 6)"/>
</clipPath>
</defs>
</svg>
